<svg width="64" height="27" viewBox="0 0 64 27" fill="none" xmlns="http://www.w3.org/2000/svg">
<path d="M0.515625 20V0.0117188H4.75391V16.5H12.8613V20H0.515625ZM29.9102 12.3301C29.9102 13.6061 29.737 14.7363 29.3906 15.7207C29.0534 16.7051 28.5566 17.5391 27.9004 18.2227C27.2533 18.8971 26.4694 19.4076 25.5488 19.7539C24.6374 20.1003 23.6074 20.2734 22.459 20.2734C21.3835 20.2734 20.3945 20.1003 19.4922 19.7539C18.599 19.4076 17.8197 18.8971 17.1543 18.2227C16.498 17.5391 15.9876 16.7051 15.623 15.7207C15.2676 14.7363 15.0898 13.6061 15.0898 12.3301C15.0898 10.6348 15.3906 9.19922 15.9922 8.02344C16.5938 6.84766 17.4505 5.95443 18.5625 5.34375C19.6745 4.73307 21.0007 4.42773 22.541 4.42773C23.972 4.42773 25.2389 4.73307 26.3418 5.34375C27.4538 5.95443 28.3242 6.84766 28.9531 8.02344C29.5911 9.19922 29.9102 10.6348 29.9102 12.3301ZM19.3418 12.3301C19.3418 13.3327 19.4512 14.1758 19.6699 14.8594C19.8887 15.543 20.2305 16.0579 20.6953 16.4043C21.1602 16.7507 21.7663 16.9238 22.5137 16.9238C23.252 16.9238 23.849 16.7507 24.3047 16.4043C24.7695 16.0579 25.1068 15.543 25.3164 14.8594C25.5352 14.1758 25.6445 13.3327 25.6445 12.3301C25.6445 11.3184 25.5352 10.4798 25.3164 9.81445C25.1068 9.13997 24.7695 8.63411 24.3047 8.29688C23.8398 7.95964 23.2337 7.79102 22.4863 7.79102C21.3835 7.79102 20.5814 8.16927 20.0801 8.92578C19.5879 9.68229 19.3418 10.8171 19.3418 12.3301ZM37.8262 26.7266C35.6934 26.7266 34.0618 26.3529 32.9316 25.6055C31.8105 24.8672 31.25 23.8281 31.25 22.4883C31.25 21.5677 31.5371 20.7975 32.1113 20.1777C32.6855 19.5579 33.5286 19.1159 34.6406 18.8516C34.2122 18.6693 33.8385 18.373 33.5195 17.9629C33.2005 17.5436 33.041 17.1016 33.041 16.6367C33.041 16.0534 33.2096 15.5703 33.5469 15.1875C33.8841 14.7956 34.3717 14.4128 35.0098 14.0391C34.2077 13.6927 33.5697 13.1367 33.0957 12.3711C32.6309 11.6055 32.3984 10.7031 32.3984 9.66406C32.3984 8.55208 32.64 7.60872 33.123 6.83398C33.6152 6.05013 34.3262 5.45312 35.2559 5.04297C36.1947 4.63281 37.334 4.42773 38.6738 4.42773C38.9564 4.42773 39.2845 4.44596 39.6582 4.48242C40.0319 4.51888 40.3737 4.5599 40.6836 4.60547C41.0026 4.65104 41.2168 4.6875 41.3262 4.71484H46.6582V6.83398L44.2656 7.44922C44.4844 7.78646 44.6484 8.14648 44.7578 8.5293C44.8672 8.91211 44.9219 9.31771 44.9219 9.74609C44.9219 11.3867 44.3477 12.6673 43.1992 13.5879C42.0599 14.4993 40.474 14.9551 38.4414 14.9551C37.9583 14.9277 37.5026 14.8913 37.0742 14.8457C36.8646 15.0098 36.7051 15.1829 36.5957 15.3652C36.4863 15.5475 36.4316 15.7389 36.4316 15.9395C36.4316 16.14 36.5137 16.3086 36.6777 16.4453C36.8509 16.5729 37.1061 16.6732 37.4434 16.7461C37.7897 16.8099 38.2181 16.8418 38.7285 16.8418H41.3262C43.0033 16.8418 44.2793 17.2018 45.1543 17.9219C46.0384 18.6419 46.4805 19.6992 46.4805 21.0938C46.4805 22.8802 45.7331 24.2656 44.2383 25.25C42.7526 26.2344 40.6152 26.7266 37.8262 26.7266ZM38.0039 24.0059C38.9974 24.0059 39.8496 23.9102 40.5605 23.7188C41.2806 23.5365 41.832 23.2721 42.2148 22.9258C42.5977 22.5885 42.7891 22.1829 42.7891 21.709C42.7891 21.3262 42.6751 21.0208 42.4473 20.793C42.2285 20.5742 41.8913 20.4193 41.4355 20.3281C40.9889 20.237 40.4147 20.1914 39.7129 20.1914H37.5527C37.0423 20.1914 36.582 20.2734 36.1719 20.4375C35.7708 20.6016 35.4518 20.8294 35.2148 21.1211C34.9779 21.4219 34.8594 21.7682 34.8594 22.1602C34.8594 22.7344 35.1328 23.1855 35.6797 23.5137C36.2357 23.8418 37.0104 24.0059 38.0039 24.0059ZM38.6738 12.4121C39.4577 12.4121 40.0319 12.1706 40.3965 11.6875C40.7611 11.2044 40.9434 10.5482 40.9434 9.71875C40.9434 8.79818 40.752 8.11003 40.3691 7.6543C39.9954 7.18945 39.4303 6.95703 38.6738 6.95703C37.9082 6.95703 37.334 7.18945 36.9512 7.6543C36.5684 8.11003 36.377 8.79818 36.377 9.71875C36.377 10.5482 36.5638 11.2044 36.9375 11.6875C37.3203 12.1706 37.8991 12.4121 38.6738 12.4121ZM63.0781 12.3301C63.0781 13.6061 62.9049 14.7363 62.5586 15.7207C62.2214 16.7051 61.7246 17.5391 61.0684 18.2227C60.4212 18.8971 59.6374 19.4076 58.7168 19.7539C57.8053 20.1003 56.7754 20.2734 55.627 20.2734C54.5514 20.2734 53.5625 20.1003 52.6602 19.7539C51.7669 19.4076 50.9876 18.8971 50.3223 18.2227C49.666 17.5391 49.1556 16.7051 48.791 15.7207C48.4355 14.7363 48.2578 13.6061 48.2578 12.3301C48.2578 10.6348 48.5586 9.19922 49.1602 8.02344C49.7617 6.84766 50.6185 5.95443 51.7305 5.34375C52.8424 4.73307 54.1686 4.42773 55.709 4.42773C57.14 4.42773 58.4069 4.73307 59.5098 5.34375C60.6217 5.95443 61.4922 6.84766 62.1211 8.02344C62.7591 9.19922 63.0781 10.6348 63.0781 12.3301ZM52.5098 12.3301C52.5098 13.3327 52.6191 14.1758 52.8379 14.8594C53.0566 15.543 53.3984 16.0579 53.8633 16.4043C54.3281 16.7507 54.9342 16.9238 55.6816 16.9238C56.4199 16.9238 57.0169 16.7507 57.4727 16.4043C57.9375 16.0579 58.2747 15.543 58.4844 14.8594C58.7031 14.1758 58.8125 13.3327 58.8125 12.3301C58.8125 11.3184 58.7031 10.4798 58.4844 9.81445C58.2747 9.13997 57.9375 8.63411 57.4727 8.29688C57.0078 7.95964 56.4017 7.79102 55.6543 7.79102C54.5514 7.79102 53.7493 8.16927 53.248 8.92578C52.7559 9.68229 52.5098 10.8171 52.5098 12.3301Z" fill="white"/>
</svg>
